@startuml
title Diagrama de Classes - HU-009: Acionamento Automático da Irrigação

skinparam classAttributeIconSize 0

class Agricultor {
  +idUsuario:int
  +nome:String
  +contato:String
}

class Talhao {
  +idTalhao:int
  +nomeIdentificador:String
  +area:double
  +localizacaoGeografica:double
}

class Cultura {
  +idCultura:int
  +nomeCultura:String
  +nivelUmidadeIdealMin:double
  +nivelUmidadeIdealMax:double
}

class SensorUmidadeSolo {
  +idSensor:int 
  +localizacaoNoTalhao:double
  +nivelUmidadeAtual:double
  +timestampUltimaLeitura:double
 +statusOperacional:boolean
}

class SistemaIrrigacao {
  +idSistemaIrrigacao:int
  +tipo:String
  +statusOperacional:boolean
}

class ConfiguracaoIrrigacao {
  +idConfiguracao: int 
  +limiteMinUmidadeAcionamento:double
  +limiteMaxUmidadeDesligamento:double
  +ativo:booleam
}

class EventoIrrigacao {
  +idEvento:int 
  +dataHoraInicio:Date
  +dataHoraFim:Date
  +nivelUmidadeInicio:double
  +nivelUmidadeFim:double
  +tipoEvento:String
}

class AlertaFalhaIrrigacao {
  +idAlerta:int 
  +dataHora:Date
  +descricaoFalha:String
  +talhaoAfetado:String
}

Talhao "1" -- "*" SensorUmidadeSolo 
Talhao "1" -- "1" SistemaIrrigacao 
Talhao "1" -- "0..1" Cultura 
Talhao "1" -- "1" ConfiguracaoIrrigacao 

ConfiguracaoIrrigacao -- "1" Cultura 

SistemaIrrigacao -- "*" EventoIrrigacao 
Talhao -- "*" EventoIrrigacao 
SistemaIrrigacao -- "*" AlertaFalhaIrrigacao 
Agricultor "1" -- "*" AlertaFalhaIrrigacao 

' Relação implícita: O sistema usa dados do SensorUmidadeSolo e ConfiguracaoIrrigacao para decidir acionar o SistemaIrrigacao, gerando um EventoIrrigacao ou AlertaFalhaIrrigacao.
@enduml
